HIERARCHY
ROOT pelvis
{
  OFFSET 0 100 0
  CHANNELS 6 Xposition Yposition Zposition Zrotation Xrotation Yrotation
  JOINT pelvis_right_femur
  {
    OFFSET -10.78128 -3.44521 -0.5502486
    CHANNELS 3 Zrotation Xrotation Yrotation
    JOINT right_femur_tibia
    {
      OFFSET -0.8047443 -44.0398 -0.1307829
      CHANNELS 3 Zrotation Xrotation Yrotation
      JOINT right_tibia_foot
      {
        OFFSET 3.006224 -47.83518 -5
        CHANNELS 3 Zrotation Xrotation Yrotation
        End Site
        {
          OFFSET 0 -5 15
        }
      }
    }
  }
  JOINT pelvis_left_femur
  {
    OFFSET 10.78128 -3.44521 -0.5502486
    CHANNELS 3 Zrotation Xrotation Yrotation
    JOINT left_femur_tibia
    {
      OFFSET 0.8047443 -44.0398 -0.1307829
      CHANNELS 3 Zrotation Xrotation Yrotation
      JOINT left_tibia_foot
      {
        OFFSET -4.370144 -48.10324 -4.275266
        CHANNELS 3 Zrotation Xrotation Yrotation
        End Site
        {
          OFFSET 0 -5 15
        }
      }
    }
  }
  JOINT pelvis_spine1
  {
    OFFSET 0 6.468898 -3.129235
    CHANNELS 3 Zrotation Xrotation Yrotation
    JOINT spine1
    {
      OFFSET 0 23.15396 4.99043
      CHANNELS 3 Zrotation Xrotation Yrotation
      JOINT spine2
      {
        OFFSET 0 20.79997 -5.064912
        CHANNELS 3 Zrotation Xrotation Yrotation
        JOINT neck
        {
          OFFSET 0 14.38658 9.616178
          CHANNELS 3 Zrotation Xrotation Yrotation
          End Site
          {
            OFFSET 0 20 0
          }
        }
      }
      JOINT right_manubrium
      {
        OFFSET -5.722621 16.35077 3.967754
        CHANNELS 3 Zrotation Xrotation Yrotation
        JOINT right_clavicle
        {
          OFFSET -13.16364 1.694482 -4.693211
          CHANNELS 3 Zrotation Xrotation Yrotation
          JOINT right_humerus
          {
            OFFSET -28.5034 -0.3100689 -2.792744
            CHANNELS 3 Zrotation Xrotation Yrotation
            JOINT right_radius
            {
              OFFSET -25.15693 0.02248979 -1.271978
              CHANNELS 3 Zrotation Xrotation Yrotation
              End Site
              {
                OFFSET -15 0 0
              }
            }
          }
        }
      }
      JOINT left_manubrium
      {
        OFFSET 5.722621 16.35077 3.967754
        CHANNELS 3 Zrotation Xrotation Yrotation
        JOINT left_clavicle
        {
          OFFSET 13.16364 1.694482 -4.693211
          CHANNELS 3 Zrotation Xrotation Yrotation
          JOINT left_humerus
          {
            OFFSET 29.39168 -1.063119 -2.237045
            CHANNELS 3 Zrotation Xrotation Yrotation
            JOINT left_radius
            {
              OFFSET 24.59957 -0.9528479 0.9047498
              CHANNELS 3 Zrotation Xrotation Yrotation
              End Site
              {
                OFFSET 15 -0 -0
              }
            }
          }
        }
      }
    }
  }
}
MOTION
Frames: 23
Frame Time: 0.0416666666667
-1729.332 98.78849 1973.342 -6.965321 -0.0567866 -97.5719 0.8453127 18.43805 2.138838 -0 28.52015 -0 -5.55156 -7.248181 -0.81612 -1.617262 -18.96314 -7.542473 -0 14.87966 -0 -1.437434 -6.14463 19.53838 -0.00754692 -2.438386 8.740752 -0.03790269 14.79215 -5.228747 -0.7982726 19.76645 5.813433 6.391292 -16.12937 1.733874 1.96088 -27.00798 12.76283 85.09834 24.14826 -11.47213 -0 0 25.90692 -20.92287 10.21423 8.318958 4.246802 -26.1398 -9.653675 -96.10629 6.326318 34.93434 0 0 -2.445226 10.89668 10.31604 -0.6169495
-1736.092 99.18942 1973.69 -7.716979 -0.509255 -97.46228 0.01890873 16.32523 2.038271 -0 36.16379 -0 -6.006374 -1.827872 -1.042362 -3.19309 -15.42612 -8.795062 -0 16.27712 -0 -0.9398853 -7.116106 19.59616 0.1035066 -2.517297 8.596396 0.0769988 15.18928 -5.636211 -0.7465561 19.84542 5.5199 6.260534 -15.93436 1.526949 1.920561 -26.61161 12.81717 85.67481 23.40377 -12.71141 -0 0 25.20627 -20.84577 10.77505 7.822868 4.370283 -26.74581 -9.898766 -95.59254 6.565909 33.86547 0 0 -3.822373 11.29077 10.81712 -1.184427
-1742.596 99.95143 1974.01 -8.50226 -0.6550948 -97.02979 -0.2107883 12.44344 1.804242 -0 43.16102 -0 -6.603218 2.807504 -1.412523 -4.183796 -11.28818 -9.559986 -0 17.05325 -0 -0.2716073 -8.063387 19.53409 0.2634229 -2.628357 8.493153 0.2622052 15.70405 -6.195161 -0.698867 19.87394 5.114867 6.101085 -15.64165 1.198498 1.879117 -26.19909 12.89928 86.36511 22.49077 -14.27586 -0 0 24.48254 -20.57621 11.47734 7.051295 4.471204 -27.57835 -10.22687 -94.9691 6.765821 32.69759 0 0 -5.58235 11.70809 11.33935 -1.778304
-1748.723 100.8807 1974.301 -9.135085 -0.492955 -96.38311 0.04763894 7.094405 1.413209 -0 47.85519 -0 -7.207738 5.680203 -1.882271 -4.613685 -6.832557 -9.8496 -0 16.89476 -0 0.5297817 -9.03103 19.31703 0.4724558 -2.776087 8.431135 0.5090062 16.3176 -6.874649 -0.6447193 19.85674 4.600016 5.904416 -15.23957 0.7714656 1.845324 -25.78983 13.01248 87.1024 21.40353 -16.04733 -0 0 23.79269 -20.1401 12.34433 6.071418 4.536326 -28.57997 -10.61707 -94.28035 6.93635 31.49307 0 0 -7.617472 12.11393 11.92261 -2.352325
-1754.468 101.7347 1974.558 -9.500367 -0.1734123 -95.66411 0.524249 0.9004737 0.848455 -0 48.896 -0 -7.678259 6.503662 -2.415022 -4.684886 -2.347956 -9.777279 -0 15.89332 -0 1.329052 -10.17793 18.89257 0.7233167 -2.955527 8.405782 0.8007506 16.99853 -7.632996 -0.5760425 19.80444 3.992415 5.672405 -14.7248 0.2776663 1.827811 -25.39344 13.15432 87.82497 20.18222 -17.89833 -0 0 23.17624 -19.57351 13.36831 4.955358 4.556861 -29.67947 -11.04336 -93.56484 7.083396 30.30148 0 0 -9.802806 12.48036 12.59248 -2.872694
-1759.93 102.275 1974.764 -9.552761 0.08587698 -94.9942 0.9288684 -5.386006 0.06728366 -0 45.74427 -0 -7.909027 5.700144 -2.951185 -4.646429 1.900167 -9.474475 -0 14.4115 -0 1.95331 -11.64548 18.21941 0.9991124 -3.150917 8.411638 1.114077 17.70093 -8.419252 -0.4918015 19.72885 3.328672 5.421105 -14.11307 -0.2461747 1.831932 -25.01676 13.31443 88.4836 18.91985 -19.70196 -0 0 22.6594 -18.91702 14.49379 3.772649 4.531735 -30.79741 -11.47546 -92.8567 7.202186 29.16819 0 0 -12.00067 12.78631 13.33495 -3.317068
-1765.277 102.3286 1974.888 -9.309684 0.1161695 -94.44124 1.078717 -11.109 -0.9561126 -0 38.94172 -0 -7.867624 4.137649 -3.410948 -4.683703 5.719887 -9.039971 -0 12.97818 -0 2.291595 -13.41836 17.31901 1.274725 -3.338237 8.446067 1.422721 18.3679 -9.177331 -0.4001429 19.63925 2.661745 5.178132 -13.44522 -0.7641298 1.857397 -24.67198 13.47527 89.0443 17.7452 -21.34188 -0 0 22.26222 -18.21102 15.61781 2.586682 4.468696 -31.85375 -11.88064 -92.19182 7.27994 28.14688 0 0 -14.06464 13.01477 14.08546 -3.66807
-1770.699 101.8415 1974.9 -8.843232 -0.1167107 -94.01755 0.9776818 -15.84673 -2.144395 -0 29.98164 -0 -7.6089 2.721477 -3.739728 -4.860833 9.026671 -8.529305 -0 12.20545 -0 2.353165 -15.26452 16.30211 1.521605 -3.490831 8.511269 1.70282 18.9404 -9.852552 -0.31693 19.54066 2.051294 4.974953 -12.7838 -1.246255 1.898485 -24.381 13.61601 89.48588 16.79147 -22.72066 -0 0 22.00389 -17.49208 16.60951 1.45387 4.38149 -32.77655 -12.22728 -91.61267 7.303543 27.3075 0 0 -15.84635 13.15018 14.73914 -3.906824
-1776.367 100.9048 1974.775 -8.264307 -0.5004483 -93.70184 0.8187974 -19.40259 -3.272228 -0 20.83879 -0 -7.261967 2.035853 -3.952905 -5.122145 11.82135 -7.971078 -0 12.70591 -0 2.233217 -16.7877 15.33824 1.714174 -3.585846 8.614155 1.937568 19.36789 -10.39889 -0.2613001 19.43353 1.551616 4.838012 -12.20038 -1.671238 1.946672 -24.17434 13.71817 89.79573 16.16695 -23.76529 -0 0 21.9046 -16.7893 17.34105 0.4228854 4.283485 -33.50937 -12.48935 -91.16686 7.265002 26.73444 0 0 -17.20827 13.17781 15.177 -4.010107
-1782.399 99.744 1974.49 -7.700997 -0.8339884 -93.47027 0.901458 -21.69717 -4.013415 -0 13.39333 -0 -6.988264 2.180432 -4.133388 -5.334579 14.10903 -7.39241 -0 15.0019 -0 2.011784 -17.55199 14.58011 1.835209 -3.609073 8.764327 2.119097 19.61663 -10.78428 -0.2502375 19.31434 1.20236 4.782847 -11.75906 -2.025744 1.993823 -24.08544 13.77035 89.96711 15.93912 -24.42905 -0 0 21.98348 -16.12187 17.71557 -0.4668314 4.180896 -34.0153 -12.6505 -90.8992 7.161092 26.5147 0 0 -18.04104 13.08514 15.29623 -3.951956
-1788.839 98.66952 1974.024 -7.277586 -0.9175459 -93.32329 1.49196 -22.66339 -4.064428 -0 8.956423 -0 -6.922589 2.825269 -4.378204 -5.34521 15.79148 -6.840057 -0 19.41991 -0 1.672902 -17.2184 14.09624 1.878164 -3.557114 8.970214 2.246774 19.67266 -10.9919 -0.2942032 19.1774 1.025452 4.812929 -11.50416 -2.300915 2.034069 -24.14292 13.77009 89.99886 16.13192 -24.69039 -0 0 22.25269 -15.501 17.68217 -1.184386 4.069991 -34.27706 -12.706 -90.84191 6.989708 26.71926 0 0 -18.27991 12.86548 15.03355 -3.709587
-1795.629 97.99407 1973.368 -7.092117 -0.6399612 -93.29895 2.671683 -22.22481 -3.296392 -0 7.951893 -0 -7.125051 3.410742 -4.728265 -5.041716 16.58644 -6.384042 -0 25.95599 -0 1.124822 -15.66786 13.86752 1.846019 -3.4374 9.233233 2.322828 19.53994 -11.01739 -0.3947334 19.01838 1.027953 4.921987 -11.45685 -2.487333 2.063764 -24.36245 13.72285 89.89628 16.72871 -24.5497 -0 0 22.70836 -14.93948 17.23779 -1.701108 3.940959 -34.29355 -12.66149 -91.00689 6.748299 27.38122 0 0 -17.91469 12.52434 14.37828 -3.273708
-1802.61 97.93188 1972.543 -7.186354 -0.04234193 -93.4651 4.233681 -20.36751 -1.867654 -0 9.753795 -0 -7.557502 3.392066 -5.122498 -4.41692 16.04696 -6.090638 -0 34.12683 -0 0.3168197 -13.10354 13.84684 1.747917 -3.266937 9.540739 2.347164 19.23641 -10.86434 -0.5436666 18.83947 1.207204 5.097313 -11.61856 -2.570562 2.080404 -24.73948 13.6391 89.67089 17.67385 -24.02533 -0 0 23.32154 -14.46691 16.42379 -1.979944 3.787511 -34.0746 -12.52929 -91.3817 6.437734 28.47416 0 0 -16.99085 12.0868 13.37846 -2.662127
-1809.545 98.51676 1971.616 -7.518816 0.6699923 -93.88735 5.720096 -17.23325 -0.2004483 -0 12.81377 -0 -8.078939 2.444445 -5.414182 -3.613871 13.74997 -5.972562 -0 42.89983 -0 -0.6557289 -10.0829 14.01516 1.595467 -3.06977 9.86065 2.313529 18.79055 -10.54074 -0.723499 18.6545 1.553633 5.322297 -11.97484 -2.530208 2.082078 -25.24371 13.53094 89.33821 18.87367 -23.14948 -0 0 24.03483 -14.14193 15.32418 -1.968776 3.617613 -33.63571 -12.32376 -91.92898 6.070443 29.89694 0 0 -15.60182 11.60113 12.14291 -1.931503
-1816.213 99.59174 1970.672 -7.97466 1.207313 -94.58316 6.646541 -13.12617 1.223728 -0 15.29183 -0 -8.473325 0.5760352 -5.463348 -2.876324 9.611801 -5.963209 -0 50.83244 -0 -1.574091 -7.379115 14.38493 1.400139 -2.872308 10.14305 2.209419 18.23851 -10.05865 -0.9094644 18.49044 2.049231 5.578213 -12.4951 -2.345108 2.06839 -25.81903 13.40907 88.9136 20.20485 -21.96385 -0 0 24.77067 -14.04876 14.06145 -1.608435 3.458318 -32.99487 -12.05742 -92.59067 5.677266 31.47798 0 0 -13.87185 11.13183 10.83328 -1.176702
-1822.492 100.8851 1969.78 -8.425643 1.362358 -95.49165 6.797334 -8.421286 2.132153 -0 16.03159 -0 -8.543422 -1.876219 -5.241458 -2.36989 4.082331 -5.944586 -0 56.4124 -0 -2.237254 -5.640859 14.97343 1.172508 -2.69641 10.33365 2.021991 17.61981 -9.437104 -1.074537 18.38141 2.663649 5.845918 -13.13051 -2.00443 2.042276 -26.39374 13.28095 88.40865 21.53785 -20.5166 -0 0 25.4523 -14.26812 12.77798 -0.8601917 3.347811 -32.17329 -11.73953 -93.29958 5.305581 33.01324 0 0 -11.93213 10.73965 9.633184 -0.5071063
-1828.388 102.1085 1968.965 -8.785287 1.156056 -96.48847 6.360563 -3.497025 2.57081 -0 15.12842 -0 -8.239438 -4.404573 -4.839659 -2.009073 -2.030202 -5.786065 -0 58.40636 -0 -2.583619 -5.040765 15.76975 0.9239305 -2.553344 10.39653 1.749487 16.97226 -8.707196 -1.196651 18.35503 3.351588 6.106885 -13.81617 -1.519927 2.011036 -26.90117 13.15161 87.83195 22.76741 -18.86523 -0 0 26.02766 -14.82939 11.60164 0.2576396 3.314912 -31.20171 -11.37869 -93.9965 5.00597 34.33219 0 0 -9.900638 10.45758 8.69547 -0.003606907
-1833.983 103.0073 1968.224 -8.996236 0.8276888 -97.44295 5.775143 1.263907 2.760286 -0 13.5332 -0 -7.698528 -6.64767 -4.371836 -1.486077 -7.963726 -5.374974 -0 56.12635 -0 -2.688013 -5.212274 16.69032 0.6697536 -2.443713 10.33179 1.411316 16.3308 -7.916101 -1.264471 18.41854 4.05437 6.342525 -14.4812 -0.9314885 1.984917 -27.30059 13.02669 87.19557 23.82639 -17.08724 -0 0 26.48165 -15.676 10.61789 1.650519 3.359987 -30.12989 -10.98886 -94.64379 4.815056 35.35363 0 0 -7.878308 10.28032 8.09651 0.3159763
-1839.382 103.3873 1967.561 -8.983281 0.6666931 -98.28061 5.415728 5.523816 2.863007 -0 12.16033 -0 -7.130787 -8.655691 -3.882839 -0.5196017 -13.23492 -4.681149 -0 49.7213 -0 -2.674 -5.544028 17.57041 0.430124 -2.363943 10.17274 1.046589 15.73071 -7.124486 -1.278412 18.55583 4.708239 6.533727 -15.06496 -0.2999846 1.972786 -27.58438 12.91469 86.52401 24.67281 -15.28857 -0 0 26.82814 -16.6802 9.868917 3.168731 3.455768 -29.02995 -10.59328 -95.22599 4.746839 36.08864 0 0 -5.958856 10.17671 7.830554 0.4919151
-1844.71 103.164 1966.992 -8.664243 0.8208043 -99.01086 5.36373 9.111196 2.896367 -0 11.40128 -0 -6.66058 -10.7649 -3.346136 0.8690645 -17.58152 -3.834975 -0 40.40803 -0 -2.630254 -5.581858 18.24532 0.2253995 -2.312379 9.963989 0.6996209 15.2087 -6.395413 -1.247262 18.73798 5.258552 6.664079 -15.53162 0.3102464 1.977131 -27.76632 12.82485 85.86039 25.27245 -13.59832 -0 0 27.0861 -17.70131 9.368406 4.657084 3.56833 -27.98645 -10.22162 -95.73703 4.796572 36.58978 0 0 -4.237857 10.11566 7.841672 0.5806767
-1850.112 102.4103 1966.531 -8.036062 1.211681 -99.70149 5.398259 12.07121 2.816435 -0 11.30362 -0 -6.277002 -13.09701 -2.730502 2.27678 -20.83041 -3.135778 -0 30.29165 -0 -2.57276 -5.248107 18.66002 0.06936621 -2.288984 9.739304 0.4040012 14.79786 -5.781937 -1.183521 18.93825 5.671953 6.725653 -15.87315 0.8478409 1.992496 -27.86055 12.76259 85.2658 25.60144 -12.15211 -0 0 27.25473 -18.63791 9.110371 5.993301 3.677877 -27.07952 -9.902941 -96.16375 4.94963 36.89049 0 0 -2.813658 10.08621 8.061451 0.6123443
-1855.746 101.3434 1966.175 -7.248533 1.595163 -100.4153 5.172733 14.56406 2.626639 -0 11.99471 -0 -5.916833 -15.16363 -2.061091 3.110076 -22.85121 -2.943641 -0 21.64686 -0 -2.467804 -4.790262 18.89094 -0.03381574 -2.291286 9.514298 0.1765113 14.5216 -5.321395 -1.100211 19.1401 5.938974 6.722545 -16.09971 1.280102 2.00874 -27.86764 12.72718 84.80987 25.66218 -11.07368 -0 0 27.30492 -19.43871 9.069941 7.093432 3.783226 -26.37374 -9.660615 -96.4777 5.186036 36.9794 0 0 -1.781157 10.10067 8.428458 0.5773464
-1861.737 100.2474 1965.9 -6.575151 1.718595 -101.1502 4.448182 16.67292 2.404319 -0 13.87831 -0 -5.578581 -15.99665 -1.433588 2.931046 -23.5686 -3.488378 -0 16.01765 -0 -2.288815 -4.558174 19.06187 -0.0872131 -2.312999 9.293212 0.02112039 14.39135 -5.036349 -1.009667 19.33496 6.067737 6.669254 -16.22641 1.58902 2.016208 -27.77735 12.71365 84.55459 25.48907 -10.45863 -0 0 27.1935 -20.08242 9.206774 7.899019 3.892639 -25.91595 -9.51138 -96.64084 5.479517 36.81785 0 0 -1.22021 10.18363 8.88972 0.4426615
